<?xml version="1.0" encoding="UTF-8"?>
<svg id="Logos" xmlns="http://www.w3.org/2000/svg" version="1.1" viewBox="0 0 1277 260.3">
  <!-- Generator: Adobe Illustrator 29.2.1, SVG Export Plug-In . SVG Version: 2.1.0 Build 116)  -->
  <defs>
    <style>
      .st0 {
        fill: #003c30;
      }

      .st1 {
        fill: #51be99;
      }

      .st2 {
        fill: #003c30;
      }
    </style>
  </defs>
  <g id="Primary">
    <g id="Tazama">
      <polygon class="st0" points="463.5 26.5 296.6 26.5 296.6 58.7 362.9 58.7 362.9 231.4 397.1 231.4 397.1 58.7 463.5 58.7 463.5 26.5"/>
      <path class="st2" d="M574.4,102.1c-5-10.2-12.7-17.4-23.1-21.9-10.4-4.5-22.4-6.7-36.1-6.7s-32.5,3.9-43.2,11.8c-10.7,7.9-17.9,18.3-21.7,31.3l31.3,9.8c2.6-7.9,7.1-13.4,13.5-16.7,6.5-3.2,13.1-4.8,20.1-4.8,11.5,0,19.6,2.5,24.5,7.5,4,4.2,6.3,10.3,6.9,18.4-6.2.9-12.2,1.8-18.1,2.6-9.7,1.4-18.7,2.9-27,4.5s-15.5,3.4-21.7,5.4c-8.2,2.8-14.8,6.3-19.9,10.6-5.1,4.3-8.9,9.4-11.4,15.4-2.5,5.9-3.7,12.6-3.7,20s2,16.2,5.9,23.2,9.8,12.6,17.4,16.9,17.1,6.3,28.2,6.3,25.4-2.6,34.6-7.8c7.1-4,13.5-9.7,19.3-17.2v20.7h30v-94.3c0-6.6-.3-12.8-.8-18.4-.6-5.7-2.2-11.2-5-16.6ZM542.8,182.9c-1.1,3.5-3.3,7.2-6.6,11.2-3.3,4-7.7,7.4-13.2,10.1s-12.1,4.1-19.9,4.1-9.9-.9-13.6-2.6c-3.6-1.7-6.4-4-8.3-6.9-1.9-2.9-2.9-6.2-2.9-10s.7-6.2,2.2-8.7c1.5-2.5,3.6-4.6,6.3-6.5,2.8-1.9,6.1-3.6,10.1-5,4.1-1.3,8.8-2.5,14.1-3.6,5.3-1.1,11.7-2.2,19.1-3.5,4.7-.8,10.1-1.7,16-2.6,0,2.6-.2,5.6-.3,8.9-.2,5.6-1.2,10.6-3,15Z"/>
      <path class="st2" d="M1071.9,73.9c-10.2,0-19.5,2.3-27.9,6.8-7.9,4.3-14.2,10.2-19,17.6-3.8-7.1-9.1-12.8-16-17.1-7.7-4.9-17.3-7.3-28.8-7.3s-19.8,2.3-28.2,6.9c-6.5,3.5-11.9,8.1-16.3,13.6v-16.7h-30.3v153.7h34.6v-94.6c0-9.6,2.6-17.4,7.9-23.3,5.3-6,12.3-9,21-9s16.1,3,21.3,9c5.2,6,7.8,14.3,7.8,25v92.9h34.1v-94.6c0-6.7,1.3-12.5,3.8-17.4,2.6-4.9,6-8.6,10.4-11.1,4.4-2.5,9.3-3.8,14.8-3.8,8.9,0,16,3,21.2,8.9,5.2,5.9,7.8,14.2,7.8,24.7v93.3h34.3v-102c0-16.6-4.5-30-13.6-40.2-9.1-10.2-22.1-15.3-39.1-15.3Z"/>
      <path class="st2" d="M1276.2,118.7c-.6-5.6-2.2-11.2-5-16.6-5-10.2-12.7-17.5-23.1-21.9-10.4-4.5-22.4-6.7-36.1-6.7s-32.5,3.9-43.2,11.8c-10.7,7.9-17.9,18.3-21.7,31.3l31.3,9.8c2.6-7.9,7.1-13.4,13.5-16.7,6.4-3.2,13.1-4.8,20.1-4.8,11.5,0,19.6,2.5,24.5,7.5,4,4.2,6.3,10.3,6.9,18.4-6.2.9-12.2,1.8-18.1,2.6-9.7,1.4-18.7,2.9-27,4.5-8.3,1.6-15.5,3.4-21.7,5.4-8.2,2.8-14.8,6.3-19.9,10.6-5.1,4.3-8.9,9.4-11.4,15.4-2.5,5.9-3.7,12.6-3.7,20s2,16.2,5.9,23.2c3.9,7,9.8,12.6,17.4,16.9s17.1,6.3,28.2,6.3,25.4-2.6,34.6-7.8c7.1-4,13.5-9.7,19.3-17.2v20.7h30v-94.3c0-6.7-.3-12.8-.8-18.4ZM1239.6,182.9c-1.1,3.5-3.3,7.2-6.6,11.2-3.3,4-7.7,7.4-13.2,10.1s-12.1,4.1-19.9,4.1-9.9-.9-13.6-2.6c-3.7-1.7-6.4-4-8.3-6.9-1.9-2.9-2.8-6.2-2.8-10s.7-6.2,2.2-8.7c1.5-2.5,3.6-4.6,6.3-6.5,2.8-1.9,6.1-3.6,10.1-5,4.1-1.3,8.8-2.5,14.1-3.6,5.3-1.1,11.7-2.2,19.1-3.5,4.7-.8,10.1-1.7,16-2.6,0,2.6-.2,5.6-.3,8.9-.2,5.6-1.2,10.6-3,15Z"/>
      <path class="st2" d="M877.5,102.1c-5-10.2-12.7-17.4-23.1-21.9-10.4-4.5-22.4-6.7-36.1-6.7s-32.5,3.9-43.2,11.8c-10.7,7.9-17.9,18.3-21.7,31.3l31.3,9.8c2.6-7.9,7.1-13.4,13.5-16.7,6.5-3.2,13.1-4.8,20.1-4.8,11.5,0,19.6,2.5,24.5,7.5,4,4.2,6.3,10.3,6.9,18.4-6.2.9-12.2,1.8-18.1,2.6-9.7,1.4-18.7,2.9-27,4.5-8.3,1.6-15.5,3.4-21.7,5.4-8.2,2.8-14.8,6.3-19.9,10.6-5.1,4.3-8.9,9.4-11.4,15.4-2.5,5.9-3.7,12.6-3.7,20s2,16.2,5.9,23.2c3.9,7,9.8,12.6,17.4,16.9s17.1,6.3,28.2,6.3,25.4-2.6,34.6-7.8c7.1-4,13.5-9.7,19.3-17.2v20.7h30v-94.3c0-6.6-.3-12.8-.8-18.4-.6-5.7-2.2-11.2-5-16.6ZM845.9,182.9c-1.1,3.5-3.3,7.2-6.6,11.2-3.3,4-7.7,7.4-13.2,10.1s-12.1,4.1-19.9,4.1-9.9-.9-13.6-2.6c-3.7-1.7-6.4-4-8.3-6.9-1.9-2.9-2.8-6.2-2.8-10s.7-6.2,2.2-8.7c1.5-2.5,3.6-4.6,6.3-6.5,2.8-1.9,6.1-3.6,10.1-5,4.1-1.3,8.8-2.5,14.1-3.6,5.3-1.1,11.7-2.2,19.1-3.5,4.7-.8,10.1-1.7,16-2.6,0,2.6-.2,5.6-.3,8.9-.2,5.6-1.2,10.6-3,15Z"/>
      <path class="st2" d="M607.3,107.8h79.6c-37.3,33.6-63.1,67.6-79.6,93.5v30.1h126.5v-30h-90.3c19.7-27.7,49-62,90.2-93.6h0v-30h-126.5v30Z"/>
    </g>
    <path id="Icon" class="st1" d="M163.4,31.6c0,14.8-27.7,100.6-27.7,100.6,0,0-27.7-85.8-27.7-100.6S120.5,0,135.8,0s27.7,16.9,27.7,31.6ZM1,97.4c-4.7,14.5,7.5,31.5,21.5,36.1s104.2,4.8,104.2,4.8c0,0-73.1-52.8-87.1-57.4-14-4.6-33.9,2-38.7,16.5ZM52,255.6c12.4,9,32.3,2.6,41-9.3s36.7-97.6,36.7-97.6c0,0-72.8,53.1-81.5,65.1-8.7,11.9-8.6,32.9,3.8,41.9ZM218.3,256c12.4-9,12.4-29.9,3.8-41.9-8.7-11.9-81.5-65.1-81.5-65.1,0,0,28.1,85.7,36.7,97.6s28.6,18.3,41,9.3ZM270,98c-4.7-14.5-24.6-21.1-38.6-16.5-14,4.6-87.1,57.4-87.1,57.4,0,0,90.2-.2,104.2-4.8,14-4.6,26.3-21.6,21.5-36.1ZM178.4,67.4c0,6.1,4.9,11,11,11s11-4.9,11-11-4.9-11-11-11-11,4.9-11,11ZM70.9,67.8c0,6.1,4.9,11,11,11s11-4.9,11-11-4.9-11-11-11-11,4.9-11,11ZM50.1,164c0,6.1,4.9,11,11,11s11-4.9,11-11-4.9-11-11-11-11,4.9-11,11ZM124.1,212.3c0,6.1,4.9,11,11,11s11-4.9,11-11-4.9-11-11-11-11,4.9-11,11ZM198.7,164.9c0,6.1,4.9,11,11,11s11-4.9,11-11-4.9-11-11-11-11,4.9-11,11Z"/>
  </g>
</svg>